<svg xmlns="http://www.w3.org/2000/svg" width="129.843" height="15.118" viewBox="0 0 129.843 15.118">
  <g id="Exim_Logo" data-name="Exim Logo" transform="translate(-17.242 0.447)">
    <path id="R" d="M72.34,26a4.868,4.868,0,0,0,1.162-.111,1.849,1.849,0,0,0,.7-.292v-.5h-4a9.057,9.057,0,0,0-1.581.15,4.884,4.884,0,0,0-1.509.522,3.462,3.462,0,0,0-1.138,1,3.074,3.074,0,0,0-.522,1.581,2.632,2.632,0,0,0,.34,1.691,3.5,3.5,0,0,0,.972,1.138,4.37,4.37,0,0,0,1.28.656c.466.15.846.269,1.146.348s.6.126.79.19l.6.15c.182.063.348.095.506.142l.5.111a5.4,5.4,0,0,1,.7.213,4.079,4.079,0,0,1,.79.458,2.917,2.917,0,0,1,.64.735,2.063,2.063,0,0,1,.324,1.106,4.061,4.061,0,0,1-.221,1.272,2.916,2.916,0,0,1-.68,1.035,3.429,3.429,0,0,1-1.106.735,4.133,4.133,0,0,1-1.525.269H67.859a4.433,4.433,0,0,0-1.162.119,2.821,2.821,0,0,0-.7.284v.522H70.87a6.045,6.045,0,0,0,1.43-.205,4.844,4.844,0,0,0,1.581-.672A4.663,4.663,0,0,0,75.193,37.3a4.536,4.536,0,0,0,.616-2.189,3.627,3.627,0,0,0-.277-1.873,3.817,3.817,0,0,0-.964-1.209,4.679,4.679,0,0,0-1.249-.711c-.458-.158-.861-.269-1.2-.364l-1.581-.4c-.537-.142-1.019-.253-1.446-.387a3,3,0,0,1-.664-.253,1.849,1.849,0,0,1-.6-.443,1.454,1.454,0,0,1-.379-.688,2.45,2.45,0,0,1,0-1,1.707,1.707,0,0,1,.387-.846,1.952,1.952,0,0,1,.68-.561,2.892,2.892,0,0,1,.79-.284A4.062,4.062,0,0,1,70.151,26ZM60.273,26H64.4v-.632a2.987,2.987,0,0,0-.7-.213,6.457,6.457,0,0,0-1.162-.071H59.751a7.938,7.938,0,0,0-.94.04,6.535,6.535,0,0,0-1.067.15,7.382,7.382,0,0,0-1.067.364,3.208,3.208,0,0,0-.9.6,2.766,2.766,0,0,0-.64.917,3,3,0,0,0-.221,1.312v7.65a2.971,2.971,0,0,0,.221,1.3,2.7,2.7,0,0,0,.64.9,3.09,3.09,0,0,0,.9.616,5.8,5.8,0,0,0,1.067.348,5.879,5.879,0,0,0,1.067.174h3.754a6.322,6.322,0,0,0,1.162-.079,2.656,2.656,0,0,0,.672-.134v-.632H60.273a6.977,6.977,0,0,1-1.1-.063,3.485,3.485,0,0,1-1.209-.3,2.371,2.371,0,0,1-.925-.79,2.015,2.015,0,0,1-.34-1.375v-3.4h3.746a5.974,5.974,0,0,0,1.162-.1,2.371,2.371,0,0,0,.7-.213v-.632H56.7V28.526a2.015,2.015,0,0,1,.34-1.383,2.316,2.316,0,0,1,.925-.79,3.5,3.5,0,0,1,1.209-.308c.419,0,.774-.024,1.1-.024ZM44.135,26h4.094v13.49H50V26h4.125V25.08H44.135ZM41.164,36.081a4.647,4.647,0,0,1-.079.79,2.078,2.078,0,0,1-.4.933,2.482,2.482,0,0,1-.964.7,4.236,4.236,0,0,1-1.81.308,4.038,4.038,0,0,1-1.778-.308,2.371,2.371,0,0,1-.98-.7,2.078,2.078,0,0,1-.419-.933,4.647,4.647,0,0,1-.079-.83V25.1H32.874V36.025a6.322,6.322,0,0,0,.158,1.328,2.371,2.371,0,0,0,.7,1.193,3.77,3.77,0,0,0,1.525.853,9.167,9.167,0,0,0,2.647.324,9.27,9.27,0,0,0,2.671-.324,3.952,3.952,0,0,0,1.533-.853,2.458,2.458,0,0,0,.68-1.193,6.323,6.323,0,0,0,.158-1.328V25.1H41.164ZM3.626,32.564V26H6.558a8.352,8.352,0,0,1,1.122.055,3.6,3.6,0,0,1,1.185.308,2.64,2.64,0,0,1,.925.751,2.323,2.323,0,0,1,.34,1.407v1.517a2.276,2.276,0,0,1-.34,1.407,2.64,2.64,0,0,1-.925.79,3.6,3.6,0,0,1-1.185.308c-.419.04-.79.055-1.122.055Zm8.29-4.094a2.782,2.782,0,0,0-.466-1.81,3.414,3.414,0,0,0-1.288-1A5.532,5.532,0,0,0,8.581,25.2c-.561-.055-1.043-.095-1.462-.095H1.84V39.495H3.626V33.473H8.644a1.4,1.4,0,0,1,1.185.5,2.086,2.086,0,0,1,.364,1.193v4.331h1.723V35.219a4.125,4.125,0,0,0-.063-.79,2.482,2.482,0,0,0-.2-.711,2.063,2.063,0,0,0-.419-.6,1.857,1.857,0,0,0-.727-.419,2.948,2.948,0,0,0,1.043-1,2.726,2.726,0,0,0,.364-1.581Z" transform="translate(71.251 -25.29)" fill="#fff" fill-rule="evenodd"/>
    <path id="_" data-name="( )" d="M22.36,39.9a7.468,7.468,0,0,1-2.592-1.683,7.342,7.342,0,0,1-1.675-2.576,9.436,9.436,0,0,1,0-6.583A7.452,7.452,0,0,1,22.36,24.78l.917,1.707a5.248,5.248,0,0,0-1.865,1.241A5.532,5.532,0,0,0,20.219,29.7a8.5,8.5,0,0,0,0,5.271,5.477,5.477,0,0,0,1.193,1.968,5.05,5.05,0,0,0,1.865,1.241Zm5.808-1.707a4.955,4.955,0,0,0,1.857-1.241,5.461,5.461,0,0,0,1.185-1.968,8.329,8.329,0,0,0-.024-5.287A5.532,5.532,0,0,0,30,27.712a5.153,5.153,0,0,0-1.833-1.225l.917-1.707a7.484,7.484,0,0,1,2.592,1.691,7.642,7.642,0,0,1,1.675,2.584,9.436,9.436,0,0,1,0,6.583,7.421,7.421,0,0,1-4.267,4.26Z" transform="translate(67.967 -25.227)" fill="#fff" fill-rule="evenodd"/>
    <path id="Map" d="M22.973,30.136c-.047,0,.055-.15.1-.213s.079-.221.205-.182a.267.267,0,0,0,.277-.047c.032-.047,0-.174.047-.221a1.628,1.628,0,0,1,.411-.047c.134,0,.237-.1.3-.063a1.486,1.486,0,0,0,.411.063.877.877,0,0,0,.34-.237c0-.055,0-.15-.134,0s-.324.182-.34.142.055-.1,0-.166-.119-.04-.087-.142.364-.2.719-.285.332-.055.506.087a.564.564,0,0,0,.514.1c.221-.024.269-.19.332-.2s.04.087.221.04.229-.245.356-.308.19.134.553.079a1.241,1.241,0,0,0,.632-.34l.672.055v.221a.166.166,0,0,0,0,.126c0,.047.126.095.126.166s0,.079-.166.111a.253.253,0,0,0-.182.182.151.151,0,0,0,.111.166.463.463,0,0,0,.237,0c.047,0,.079,0,.182.087a.664.664,0,0,1,.182.364.3.3,0,0,1,0,.245.419.419,0,0,0-.087.221c0,.126.079.158.126.205a.6.6,0,0,1,.126.158.379.379,0,0,1-.063.2c-.047.047-.063-.055-.071-.111s-.04-.071-.15-.126-.04-.126-.047-.158a.15.15,0,0,0-.119-.071c-.04,0-.079.063-.111.142s.15.205.19.253a1.342,1.342,0,0,1,.134.182,2.607,2.607,0,0,1,0,.458.7.7,0,0,1-.2.126.221.221,0,0,0-.174.142V31.7c0,.04-.071-.063-.063-.134a.332.332,0,0,0,0-.1c0-.04-.095,0-.142,0s0,.166.1.277.071.2.1.237,0,.111-.071.19-.111.111-.158.087,0-.055-.079-.15-.119-.1-.15-.1,0,.111.055.2a.443.443,0,0,1,.063.166.893.893,0,0,0,.095.245c.055.079.055.134,0,.15s-.158-.134-.221-.166,0-.1,0-.134-.079-.095-.095-.134a.79.79,0,0,1,0-.3.237.237,0,0,0-.087-.205c-.047,0-.134.055-.174.04s0-.079,0-.158a.506.506,0,0,0-.348-.19c-.119,0-.095.063-.166.111s-.277.229-.269.316a1.454,1.454,0,0,1-.055.348c0,.063-.095.174-.15.174s0-.119-.055-.213a2.37,2.37,0,0,1-.15-.364,1.351,1.351,0,0,1,0-.253c0-.087,0-.1-.063-.087a.577.577,0,0,1-.166,0c-.04,0-.087-.158-.19-.166a2.37,2.37,0,0,1-.482,0,.79.79,0,0,0-.253-.071c-.079,0-.087-.1-.126-.142s-.063-.079-.063,0a.174.174,0,0,0,.063.158,1.336,1.336,0,0,0,.261.126c.111.047.095.119.111.205s-.182.174-.3.213-.111.111-.205.142-.3.174-.379.142-.071-.182-.087-.277a.316.316,0,0,0-.142-.205c-.079-.063-.055-.229-.055-.277a.4.4,0,0,0-.111-.245c-.087-.087-.047-.1,0-.174a.957.957,0,0,1,.182-.174c.071-.063.111-.142,0-.134a.608.608,0,0,1-.308,0c-.055-.047-.04-.126-.04-.182s0-.095-.047-.111-.134.221-.2.213-.04-.1-.04-.174.04-.095,0-.182-.071-.055-.1,0,0,.229,0,.261-.142.079-.2.047,0-.079.063-.095.079-.087,0-.134-.055-.221-.079-.277-.134-.047-.237,0-.245.205-.387.269a.205.205,0,0,1-.261-.047Zm2.568,2.039c.063-.095,0-.087-.134-.087s-.119.047-.277.126-.2,0-.213-.071a.7.7,0,0,1,0-.182c0-.04-.1-.111-.174-.2a.743.743,0,0,1-.095-.308,2.236,2.236,0,0,0-.111-.443.4.4,0,0,0-.348-.245.442.442,0,0,0-.205.04c-.134.04-.277-.095-.316-.2s0-.079-.047-.221-.15-.071-.245-.063-.205.055-.292,0-.15,0-.316.087-.1.119-.174.2a4,4,0,0,0-.324.292c-.055.071-.19.174-.253.269s0,.142-.04.308a.269.269,0,0,1-.079.15l-.142.221c-.063.1.087.063.119.126a2.931,2.931,0,0,1,.063.419c0,.1.1.111.182.142s.079-.071.1-.095.166.079.245.079.095,0,.174-.087a.111.111,0,0,1,.166.087c0,.071.182.087.237.087s.04.071,0,.134a1.138,1.138,0,0,0,0,.364,2.37,2.37,0,0,0,.166.324.609.609,0,0,1,.079.205,2.467,2.467,0,0,1-.04.316,1.051,1.051,0,0,0,.182.364s.126.142.245.253a.672.672,0,0,1,.158.308l.095.2c0,.055.063.055.221.047s.174-.063.205-.119a2.571,2.571,0,0,0,.166-.332,1.652,1.652,0,0,0,.071-.411.545.545,0,0,1,0-.229c0-.079.2-.095.245-.174s-.095-.237-.111-.364a1.3,1.3,0,0,1,0-.356c0-.095.119-.182.213-.292a1.747,1.747,0,0,1,.285-.237A1.981,1.981,0,0,0,25.541,32.175Zm0,1.494c0-.055-.095-.079-.166-.047s-.055.1-.087.119a.491.491,0,0,0-.182.15c-.04.071,0,.119,0,.182a.3.3,0,0,1-.047.182.338.338,0,0,0,0,.221c0,.024.095,0,.19,0s0-.126,0-.205a.593.593,0,0,1,.1-.3.893.893,0,0,0,.213-.3Zm5.311.648a.158.158,0,0,0-.071-.15v-.34a1.612,1.612,0,0,0-.04-.229c0-.024,0-.087-.055-.063a.213.213,0,0,0,0,.126.837.837,0,0,1,0,.2s-.063.229-.126.182a.269.269,0,0,1-.126-.182c0-.047.04-.142.04-.174s0,0-.063-.071-.087-.1-.182-.087-.055.047-.055.087a.087.087,0,0,1,0,.071s-.047,0-.04.055,0,.1-.047.071-.1-.158-.15-.071a.711.711,0,0,1-.126.221,1.58,1.58,0,0,1-.221.126,1.186,1.186,0,0,0-.34.1.387.387,0,0,0-.119.261v.34c0,.063-.119.15-.111.19s.071.055.142.055.166-.047.205,0a.134.134,0,0,0,.119,0s.055-.087.1-.087.166-.047.229,0,.111,0,.119.111a1.3,1.3,0,0,1,0,.182c0,.047.055.047.079.1s0,.15.087.19a.371.371,0,0,0,.245,0,.34.34,0,0,0,.19-.166.561.561,0,0,1,.1-.213c.095-.087.166-.134.19-.205s.142-.182.111-.316-.087-.269-.063-.316Zm-2.663,2.553a.271.271,0,0,1-.166-.04c-.055-.04,0-.047,0-.1s-.095,0-.166,0a.269.269,0,0,1-.2,0,.284.284,0,0,0-.213,0,.664.664,0,0,1-.285,0,.635.635,0,0,0-.277.087c-.04.032-.126,0-.174,0h-.292c-.063,0-.174-.134-.229-.126s0,.095-.055.1h-.111c-.047,0-.1.079-.1.142s-.071.04-.111,0-.04-.079-.1-.047,0,.119-.095.182-.229,0-.285,0a.126.126,0,0,0-.142.079.213.213,0,0,1-.079.126c-.055,0,0,.119,0,.15s.047,0,.095.047,0,.126,0,.126v.142l.458.095,1.114.142,1.581-.458s.047-.095,0-.126,0-.071,0-.134a.174.174,0,0,0,0-.126.719.719,0,0,0-.142-.261Zm.94-3.509a.956.956,0,0,1,.237,0,.79.79,0,0,0,.253.047c.047,0-.079-.087-.126-.111a.458.458,0,0,0-.237,0,1.462,1.462,0,0,1-.387-.087c-.1,0-.1-.079-.087-.111a.719.719,0,0,0-.055-.2s-.111-.079-.134-.1-.15-.111-.174-.134a1.083,1.083,0,0,0-.166-.166c-.063-.047-.111-.04-.095,0a1.138,1.138,0,0,0,.229.292c.04,0,.047.095.095.126a.435.435,0,0,1,.126.245c0,.063.087.134.182.182a.972.972,0,0,0,.364.016Zm.34-1c-.047-.047-.119,0-.142,0s-.047.119-.071.15a.355.355,0,0,1-.087.1,1.58,1.58,0,0,1-.182.055.476.476,0,0,0-.04.126c0,.04,0,.079.119.166a.3.3,0,0,0,.119.047h.158c.04,0,0-.087.04-.1a.624.624,0,0,0,.134-.15c0-.047,0-.063-.047-.087s0-.126.04-.19a.111.111,0,0,0-.016-.119Zm1.581,1.138c0-.047-.071-.111-.087-.158a1.248,1.248,0,0,1-.087-.221c0-.134-.095-.1-.126-.166s-.071-.055-.166-.079-.071,0-.119.111-.095,0-.119-.087,0-.055-.063-.095-.1,0-.119.047,0,.1.119.205.071.055.182.071,0,.055,0,.142v.111a.19.19,0,0,0,.174.063c.079,0,0-.047.055-.087s.079.04.111.087.126.182.213.166.095-.032.087-.111Z" transform="translate(67.078 -25.944)" fill="#fff" fill-rule="evenodd"/>
    <path id="M" d="M61.1,2.84a9.31,9.31,0,0,1,.06.977V14.336h-1.7V0C60.512,0,61.1,2.84,61.1,2.84Zm1.773-.714S66.628,9.5,66.741,9.64a1.926,1.926,0,0,1,.21.526c.068-.18.135-.361.21-.533s.158-.346.24-.5L72.271.346a.526.526,0,0,1,.263-.278A1.435,1.435,0,0,1,72.94,0h1.428V14.344H72.639V2.885L67.8,11.834a.751.751,0,0,1-.7.451h-.286a.751.751,0,0,1-.7-.451L64.2,8.167,62.12,4.4Z" transform="translate(-10.269 -0.163)" fill="#fff"/>
    <path id="Ship" d="M53.253.075,51.39,1.683V14.156l1.3.2v-.594h.661v.128H53.7V11.729l.564-.18h.09V9.295l.812-.518h.2l.09-1.3h.594V7.3h-.586v-.12h.361V7H55.47V6.8l-.09-1.826h-.391v.143L54.4,5.26V3.006h-.361v.075c-.12,0-.286-.045-.458-.06L53.652.015V0h-.368V.12h.323V.346h-.331Zm-.887,4.967a.143.143,0,1,1-.143-.15A.15.15,0,0,1,52.367,5.042Zm0,3.622a.143.143,0,1,1-.143-.143.143.143,0,0,1,.143.143Zm0-.691a.143.143,0,1,1-.143-.143A.143.143,0,0,1,52.367,7.972Zm0-.751a.143.143,0,1,1-.143-.15.15.15,0,0,1,.143.12Zm0-.7a.143.143,0,1,1-.143-.143A.143.143,0,0,1,52.367,6.522Zm0-.751a.143.143,0,1,1-.143-.15.15.15,0,0,1,.143.12Zm1.668-2.442v5.5l-1.052.391V3.982l.18-.158h.075v.143h.6V3.516h-.278V3.231ZM54.1,9.017v2.329l-.4.128V9.137Zm-.751.278v4.23h-.676V9.535l.128-.083h.06Zm-.173-6.289V2.93H53.5v.075Zm.316.248v.2h-.316V3.223h.173Zm-.331.5v-.24h.075v.24Zm0-.962V2.57h.323V2.8Zm0-.308V2.254h.323V2.48Zm0-.308v-.21h.323v.225Zm0-.316V1.638h.316v.233Zm0-.308v-.2h.323v.225Zm0-.308V1.022h.316v.225Zm0-.308V.751h.323V.977h-.323Zm0-.316v-.2h.323v.21Zm0,12.586h-.5v-.353h.5Zm0-2.818v.361h-.5v-.361Zm0,.827v.353h-.5v-.3Zm0,.819v.353h-.5v-.353Zm0-2.111h-.5V9.573h.5ZM54.8,8.566h-.4V8.115h.4Zm0-1.368v.451h-.4V7.2Zm0-.924v.488h-.4V6.312Zm0-.954h.083V8.6l-.586.376V5.463h.09v.391H54.8ZM53.734,8.566h-.6V8.115h.6Zm0-1.368v.451h-.6V7.2Zm0-.924v.488h-.6V6.312Zm0-.917v.451h-.6V5.357Zm0-.917v.443h-.6V4.463Zm.526,4.508Z" transform="translate(-8.263 -0.163)" fill="#fff"/>
    <path id="X" d="M39.582,6.9,44.5,14.366H42.58a.488.488,0,0,1-.346-.113,1.12,1.12,0,0,1-.21-.255L38.177,7.987A1.946,1.946,0,0,1,38,8.4l-3.757,5.628a1.781,1.781,0,0,1-.218.255.421.421,0,0,1-.308.113h-1.8l4.944-7.409L32.113,0h1.931a.579.579,0,0,1,.316.068.789.789,0,0,1,.18.2Zm.661-3.892,1.8-2.7a.939.939,0,0,1,.188-.225A.436.436,0,0,1,42.5,0h1.856L40.671,5.327A2.824,2.824,0,0,1,40.243,3.005Z" transform="translate(-3.419 -0.163)" fill="#fff"/>
    <path id="E" d="M25.776,12.9l-.008,1.578H16.94V.15h8.829V1.728h-6.89V6.492h5.575V8.009H18.879V12.9Z" transform="translate(0.302 -0.298)" fill="#fff"/>
  </g>
</svg>
